<svg width="88" height="51" viewBox="0 0 88 51" fill="none" xmlns="http://www.w3.org/2000/svg">
  <path d="M14.8065 2.93432C12.8875 3.59216 11.5622 4.75204 10.8304 6.41395C10.0986 8.05855 9.73274 9.94552 9.73274 12.0748V17.4501C9.73274 19.1813 9.39937 20.7566 8.73264 22.1762C8.0659 23.5784 7.01701 24.695 5.58596 25.526C4.17118 26.3569 2.30919 26.7724 0 26.7724V23.6303C1.83759 23.6303 3.15481 23.0764 3.95164 21.9684C4.76473 20.8432 5.17128 19.3371 5.17128 17.4501V12.0748C5.17128 10.2571 5.43147 8.56059 5.95185 6.98523C6.48849 5.39257 7.3829 3.99898 8.63506 2.80448C9.90349 1.59267 11.6435 0.657841 13.8551 0L14.8065 2.93432ZM13.8551 51C11.6435 50.3248 9.90349 49.39 8.63506 48.1955C7.3829 47.001 6.48849 45.6074 5.95185 44.0148C5.43147 42.4394 5.17128 40.7429 5.17128 38.9252V33.5499C5.17128 31.6802 4.76473 30.1828 3.95164 29.0575C3.15481 27.9323 1.83759 27.3697 0 27.3697V24.2276C2.30919 24.2276 4.17118 24.6431 5.58596 25.474C7.01701 26.305 8.0659 27.4216 8.73264 28.8238C9.39937 30.2261 9.73274 31.8014 9.73274 33.5499V38.9252C9.73274 41.0545 10.0986 42.9414 10.8304 44.586C11.5622 46.2307 12.8875 47.3819 14.8065 48.0397L13.8551 51Z" fill="white"/>
  <path d="M71.799 0C74.2744 0.657841 76.2077 1.59267 77.599 2.80448C79.0084 3.99898 80.0022 5.39257 80.5804 6.98523C81.1586 8.56059 81.4477 10.2571 81.4477 12.0748V17.4501C81.4477 19.3371 81.8994 20.8432 82.8028 21.9684C83.7063 23.0764 85.1699 23.6303 87.1936 23.6303V26.5387C84.6459 26.5387 82.577 26.1492 80.9869 25.3702C79.3969 24.5738 78.2314 23.4919 77.4906 22.1242C76.7498 20.7393 76.3794 19.1813 76.3794 17.4501V12.0748C76.3794 9.94552 75.9729 8.05855 75.1598 6.41395C74.3647 4.75204 72.8921 3.59216 70.7419 2.93432L71.799 0ZM70.7419 48.0397C72.8921 47.3819 74.3647 46.2307 75.1598 44.586C75.9729 42.9414 76.3794 41.0545 76.3794 38.9252V33.5499C76.3794 31.8014 76.7498 30.252 77.4906 28.9017C78.2314 27.5341 79.3969 26.4608 80.9869 25.6818C82.577 24.8854 84.6459 24.4873 87.1936 24.4873V27.3697C85.1699 27.3697 83.7063 27.9323 82.8028 29.0575C81.8994 30.1828 81.4477 31.6802 81.4477 33.5499V38.9252C81.4477 40.7429 81.1586 42.4394 80.5804 44.0148C80.0022 45.6074 79.0084 47.001 77.599 48.1955C76.2077 49.39 74.2744 50.3248 71.799 51L70.7419 48.0397Z" fill="white"/>
  <path d="M36.6882 4.94457C34.854 4.81583 33.3175 6.07102 32.867 7.73656L31.9178 11.309C31.958 11.309 32.0063 11.309 32.0465 11.309C46.2611 11.309 57.7889 22.8391 57.7889 37.0565C57.7889 37.0968 57.7889 37.145 57.7889 37.1853L61.3607 36.2358C63.0339 35.7933 64.2808 34.2484 64.1521 32.4139C63.1385 17.7057 51.3935 5.95838 36.6882 4.94457ZM55.1986 37.8772C55.2066 37.6037 55.2147 37.3301 55.2147 37.0565C55.2147 24.2552 44.8453 13.8838 32.0465 13.8838C31.773 13.8838 31.4995 13.8918 31.2259 13.8999L23.0768 44.4509C22.9562 44.8934 23.0849 45.3682 23.4067 45.69C23.7285 46.0118 24.2031 46.1406 24.6455 46.0199L55.1986 37.8772ZM37.195 26.7575C35.7711 26.7575 34.6207 25.6069 34.6207 24.1828C34.6207 22.7586 35.7711 21.608 37.195 21.608C38.6188 21.608 39.7692 22.7586 39.7692 24.1828C39.7692 25.6069 38.6188 26.7575 37.195 26.7575ZM47.4919 31.907C47.4919 33.3312 46.3416 34.4818 44.9177 34.4818C43.4938 34.4818 42.3435 33.3312 42.3435 31.907C42.3435 30.4829 43.4938 29.3323 44.9177 29.3323C46.3416 29.3323 47.4919 30.4829 47.4919 31.907ZM35.9078 35.7692C35.9078 37.1933 34.7575 38.3439 33.3336 38.3439C31.9097 38.3439 30.7594 37.1933 30.7594 35.7692C30.7594 34.345 31.9097 33.1944 33.3336 33.1944C34.7575 33.1944 35.9078 34.345 35.9078 35.7692Z" fill="white"/>
</svg>
