<svg width="380" height="53" viewBox="0 0 380 53" fill="none" xmlns="http://www.w3.org/2000/svg">
  <path d="M16.5869 43.2881C15.3956 43.2881 14.0668 43.0896 12.6005 42.6925C11.1343 42.3259 9.65278 41.7303 8.15599 40.9055C6.68974 40.0807 5.33041 39.0116 4.07799 37.6981C2.85612 36.3846 1.86335 34.8114 1.09968 32.9786C0.366561 31.1458 0 29.0228 0 26.6096C0 24.2881 0.366561 22.2414 1.09968 20.4697C1.86335 18.698 2.85612 17.1707 4.07799 15.8877C5.29986 14.6047 6.64392 13.5661 8.11017 12.7719C9.60696 11.9777 11.1037 11.3973 12.6005 11.0308C14.0973 10.6337 15.4719 10.4351 16.7244 10.4351C18.2822 10.4351 19.6568 10.6337 20.8482 11.0308C22.0395 11.3973 23.0017 11.7944 23.7348 12.2221C24.4985 12.6192 24.972 12.8788 25.1553 13.001C25.7662 13.3981 26.3313 13.8411 26.8506 14.3298C27.4004 14.788 27.6754 15.4142 27.6754 16.2084C27.6754 16.6055 27.5837 17.0179 27.4004 17.4456C27.2477 17.8732 27.0033 18.3162 26.6673 18.7744C26.0564 19.6297 25.476 20.2559 24.9262 20.653C24.4069 21.0501 23.8876 21.2487 23.3683 21.2487C22.9712 21.2487 22.5893 21.157 22.2228 20.9737C21.8562 20.7905 21.4133 20.5308 20.894 20.1948C20.6802 20.0421 20.4052 19.8741 20.0692 19.6908C19.7332 19.4769 19.275 19.2937 18.6946 19.1409C18.1142 18.9577 17.3506 18.866 16.4036 18.866C15.6094 18.866 14.7388 19.0187 13.7919 19.3242C12.8755 19.5991 12.0049 20.0573 11.1801 20.6988C10.3554 21.3098 9.68332 22.1345 9.16403 23.1731C8.64474 24.1811 8.38509 25.403 8.38509 26.8387C8.38509 28.305 8.64474 29.5421 9.16403 30.5501C9.71387 31.5582 10.4012 32.383 11.2259 33.0244C12.0507 33.6354 12.9213 34.0936 13.8377 34.399C14.7846 34.674 15.6399 34.8114 16.4036 34.8114C17.1978 34.8114 17.8699 34.7503 18.4197 34.6281C18.9695 34.4754 19.4583 34.2769 19.8859 34.0325C20.3441 33.7881 20.7565 33.5437 21.1231 33.2994C21.4591 33.055 21.8257 32.8412 22.2228 32.6579C22.6199 32.4746 23.017 32.383 23.4141 32.383C23.9334 32.383 24.4527 32.5968 24.972 33.0244C25.4913 33.4521 26.0411 34.1088 26.6215 34.9947C26.9575 35.514 27.2019 36.0027 27.3546 36.4609C27.5379 36.8886 27.6295 37.2857 27.6295 37.6523C27.6295 38.4159 27.3546 39.0269 26.8048 39.4851C26.2855 39.9433 25.7204 40.3557 25.1094 40.7222C24.8956 40.8444 24.4374 41.1193 23.7348 41.547C23.0323 41.9746 22.0853 42.3717 20.894 42.7383C19.7027 43.1049 18.267 43.2881 16.5869 43.2881Z" fill="#04B9F4"/>
  <path d="M44.9889 43.334C42.759 43.334 40.6666 42.9216 38.7116 42.0968C36.7871 41.2415 35.0918 40.0655 33.6255 38.5687C32.1593 37.0719 30.9985 35.346 30.1432 33.391C29.3184 31.4055 28.9061 29.2977 28.9061 27.0678C28.9061 24.7463 29.3032 22.5774 30.0974 20.5614C30.9222 18.5453 32.0524 16.7736 33.4881 15.2462C34.9238 13.7189 36.5886 12.5276 38.4825 11.6722C40.4069 10.8169 42.4536 10.3893 44.6224 10.3893C46.8523 10.3893 48.9295 10.8169 50.8539 11.6722C52.8089 12.497 54.5195 13.6578 55.9858 15.1546C57.452 16.6514 58.5975 18.4078 59.4223 20.4239C60.2471 22.4094 60.6594 24.563 60.6594 26.8845C60.6594 29.145 60.2471 31.268 59.4223 33.2535C58.6281 35.2391 57.4978 36.9955 56.0316 38.5229C54.5959 40.0196 52.9311 41.1957 51.0372 42.051C49.1738 42.9063 47.1578 43.334 44.9889 43.334ZM44.7598 34.9489C45.7984 34.9489 46.7759 34.7503 47.6923 34.3532C48.6087 33.9256 49.4029 33.3605 50.075 32.6579C50.7776 31.9248 51.3121 31.0694 51.6787 30.0919C52.0758 29.0839 52.2743 28.0148 52.2743 26.8845C52.2743 25.7543 52.0758 24.7004 51.6787 23.7229C51.2816 22.7454 50.7317 21.8901 50.0292 21.157C49.3571 20.3933 48.5629 19.813 47.6465 19.4159C46.7607 18.9882 45.8137 18.7744 44.8057 18.7744C43.7671 18.7744 42.7896 18.9882 41.8732 19.4159C40.9873 19.813 40.1931 20.3933 39.4905 21.157C38.8185 21.8901 38.2839 22.7454 37.8868 23.7229C37.4897 24.7004 37.2912 25.7543 37.2912 26.8845C37.2912 27.9842 37.4897 29.0228 37.8868 30.0003C38.2839 30.9778 38.8185 31.8484 39.4905 32.6121C40.1931 33.3452 40.9873 33.9256 41.8732 34.3532C42.7896 34.7503 43.7518 34.9489 44.7598 34.9489Z" fill="#04B9F4"/>
  <path d="M66.7399 42.7841C65.4264 42.7841 64.4794 42.5856 63.8991 42.1885C63.3187 41.7914 62.9521 41.2721 62.7994 40.6306C62.6466 39.9891 62.5703 39.3018 62.5703 38.5687V14.8797C62.5703 14.2076 62.6314 13.5509 62.7536 12.9094C62.8757 12.2679 63.227 11.7486 63.8074 11.3515C64.3878 10.9239 65.3806 10.7253 66.7857 10.7558H74.6668C76.8356 10.7558 78.8823 11.1682 80.8067 11.993C82.7311 12.8178 84.4265 13.9633 85.8927 15.4295C87.3895 16.8652 88.5503 18.5453 89.3751 20.4697C90.2304 22.3942 90.658 24.4408 90.658 26.6096C90.658 28.8395 90.2304 30.932 89.3751 32.887C88.5503 34.842 87.3895 36.5679 85.8927 38.0647C84.4265 39.5309 82.7159 40.6917 80.7609 41.547C78.8364 42.3717 76.7592 42.7841 74.5293 42.7841H66.7399ZM70.9554 34.399H74.6668C76.0414 34.399 77.3091 34.063 78.4699 33.391C79.6306 32.6884 80.547 31.772 81.2191 30.6418C81.9217 29.481 82.2729 28.198 82.2729 26.7929C82.2729 25.3877 81.9217 24.1048 81.2191 22.944C80.547 21.7832 79.6306 20.8668 78.4699 20.1948C77.3091 19.4922 76.0261 19.1409 74.621 19.1409H70.9554V34.399Z" fill="#04B9F4"/>
  <path d="M97.2228 42.8299C95.8482 42.8299 94.8707 42.6314 94.2903 42.2343C93.71 41.8066 93.3587 41.2721 93.2365 40.6306C93.1143 39.9586 93.0532 39.2865 93.0532 38.6145V14.9255C93.0532 13.337 93.3587 12.2526 93.9696 11.6722C94.6111 11.0613 95.7413 10.7558 97.3603 10.7558H114.13C114.833 10.7558 115.49 10.8169 116.101 10.9391C116.742 11.0613 117.262 11.4126 117.659 11.993C118.086 12.5734 118.3 13.5661 118.3 14.9713C118.3 16.3459 118.086 17.3234 117.659 17.9038C117.262 18.4842 116.742 18.8355 116.101 18.9577C115.459 19.0798 114.787 19.1409 114.085 19.1409H101.438V23.2189H109.915C110.618 23.2189 111.244 23.28 111.794 23.4022C112.343 23.4938 112.786 23.784 113.122 24.2728C113.458 24.7615 113.626 25.6168 113.626 26.8387C113.626 27.9995 113.458 28.8395 113.122 29.3588C112.786 29.8476 112.328 30.1378 111.748 30.2294C111.167 30.321 110.526 30.3669 109.823 30.3669H101.438V34.4449H114.13C114.833 34.4449 115.49 34.506 116.101 34.6281C116.742 34.7503 117.262 35.1016 117.659 35.682C118.086 36.2624 118.3 37.2552 118.3 38.6603C118.3 40.0349 118.086 41.0124 117.659 41.5928C117.262 42.1732 116.742 42.5245 116.101 42.6467C115.459 42.7689 114.787 42.8299 114.085 42.8299H97.2228Z" fill="#04B9F4"/>
  <path d="M252.423 30.3211C251.201 31.2375 249.918 31.9095 248.574 32.3372C247.261 32.7343 245.947 32.8412 244.634 32.6579C243.32 32.4746 242.19 31.9095 241.243 30.9626C240.388 33.6812 239.807 36.3693 239.502 39.0269C239.38 39.5156 239.166 39.9586 238.861 40.3557C238.311 41.9747 237.104 43.0591 235.241 43.6089C233.408 44.1282 231.697 44.0366 230.109 43.334C229.376 42.998 228.765 42.5092 228.276 41.8678C227.787 41.2263 227.543 40.4473 227.543 39.5309C229.651 32.2302 231.682 26.2431 233.637 21.5694C234.065 20.5919 234.401 19.7977 234.645 19.1868C234.92 18.5758 235.164 18.0565 235.378 17.6289C235.592 17.2012 235.775 16.8347 235.928 16.5292C236.111 16.1932 236.325 15.8266 236.57 15.4295C237.119 14.5131 237.746 13.444 238.448 12.2221C239.181 10.9697 239.792 10.038 240.281 9.42708C240.8 8.81615 241.335 8.29685 241.885 7.8692C242.465 7.41099 243.091 6.98334 243.763 6.58623C244.466 6.18912 245.336 5.66983 246.375 5.02835C247.414 4.38686 248.513 4.00503 249.674 3.88284C250.865 3.73011 251.996 3.82175 253.065 4.15776C255.325 4.86034 256.99 6.4335 258.059 8.87724C258.976 11.1377 259.128 14.1771 258.517 17.9954C257.57 23.8299 255.539 27.9384 252.423 30.3211ZM242.847 26.2431C245.352 25.6932 247.093 24.059 248.07 21.3403C248.895 19.0493 249.063 16.4528 248.574 13.5509C247.872 14.7422 247.23 15.9794 246.65 17.2623C246.1 18.5453 245.596 19.6908 245.138 20.6988C244.13 22.9593 243.366 24.8074 242.847 26.2431Z" fill="#EC359C"/>
  <path d="M276.087 9.15216C275.018 12.4818 274.025 15.4906 273.109 18.1787C272.223 20.8668 271.398 23.3411 270.634 25.6016C269.901 27.8621 269.214 29.9545 268.572 31.879C267.931 33.7729 267.335 35.5904 266.785 37.3316C266.48 39.3476 265.487 40.7681 263.807 41.5928C262.83 42.051 261.669 42.2801 260.325 42.2801C258.981 42.2801 257.973 42.1274 257.301 41.8219C256.629 41.547 256.201 41.1346 256.018 40.5848C255.804 40.0349 255.804 39.3782 256.018 38.6145C256.201 37.8203 256.537 36.7512 257.026 35.4071C257.514 34.0325 258.125 32.1844 258.859 29.8629C259.622 27.5413 260.416 25.1892 261.241 22.8066C263.288 16.8499 264.907 12.7261 266.098 10.4351C266.556 9.57982 267.014 9.0147 267.473 8.73978C267.931 8.43431 268.374 8.22048 268.801 8.0983C269.229 7.94556 269.626 7.77756 269.993 7.59428C270.359 7.411 270.68 6.95279 270.955 6.21967C271.26 5.48655 271.795 4.98253 272.559 4.7076C273.353 4.43268 274.086 4.41741 274.758 4.66179C275.461 4.87561 275.98 5.36436 276.316 6.12803C276.683 6.86115 276.606 7.8692 276.087 9.15216Z" fill="#EC359C"/>
  <path d="M294.332 34.3532C295.645 34.3227 296.531 34.6282 296.989 35.2696C297.448 35.9111 297.585 36.6443 297.402 37.469C297.249 38.2938 296.821 39.1185 296.119 39.9433C295.447 40.7375 294.607 41.2874 293.599 41.5928C291.735 42.4176 289.322 42.9674 286.359 43.2424C283.702 43.5173 281.075 43.4867 278.478 43.1507C276.92 42.9369 275.836 42.5551 275.225 42.0052C274.003 40.9361 273.468 39.4393 273.621 37.5148C273.682 36.5984 273.866 35.85 274.171 35.2696C274.66 34.4754 275.423 33.3147 276.462 31.7873C277.531 30.26 278.585 28.8701 279.624 27.6177C280.693 26.3653 281.747 25.1587 282.785 23.9979C286.848 19.4464 289.246 16.5903 289.979 15.4295C290.132 15.1851 290.361 14.7117 290.666 14.0091C287.887 14.6506 285.091 14.6048 282.281 13.8716C281.212 13.5967 280.479 12.9094 280.082 11.8097C279.654 10.6184 279.96 9.50345 280.998 8.46486C282.495 6.84588 284.71 5.63928 287.642 4.84507C290.391 4.11194 293.141 3.83702 295.89 4.0203C296.379 4.17304 296.76 4.32577 297.035 4.4785C297.31 4.60069 297.616 4.86034 297.952 5.25745L297.998 6.12803C298.15 6.18912 298.395 6.25022 298.731 6.31131C299.097 6.3724 299.372 6.44877 299.555 6.54041C299.739 6.60151 299.937 6.70842 300.151 6.86115C300.365 7.01389 300.563 7.22772 300.747 7.50264C301.113 8.11357 301.281 9.13689 301.251 10.5726C301.251 11.9777 300.915 13.5203 300.243 15.2004C299.601 16.8499 298.807 18.4689 297.86 20.0574C296.913 21.6458 295.89 23.1579 294.79 24.5936C293.721 25.9987 292.805 27.19 292.041 28.1675C291.277 29.145 290.666 29.9392 290.208 30.5502C289.78 31.1306 289.46 31.6346 289.246 32.0622C288.849 32.8259 288.879 33.4216 289.337 33.8492L294.332 34.3532ZM294.882 34.4449H294.469H294.882Z" fill="#EC359C"/>
  <path d="M320.016 34.3532C321.33 34.3227 322.216 34.6282 322.674 35.2696C323.132 35.9111 323.269 36.6443 323.086 37.469C322.933 38.2938 322.506 39.1185 321.803 39.9433C321.131 40.7375 320.291 41.2874 319.283 41.5928C317.42 42.4176 315.007 42.9674 312.044 43.2424C309.386 43.5173 306.759 43.4867 304.162 43.1507C302.605 42.9369 301.52 42.5551 300.909 42.0052C299.687 40.9361 299.153 39.4393 299.306 37.5148C299.367 36.5984 299.55 35.85 299.855 35.2696C300.344 34.4754 301.108 33.3147 302.146 31.7873C303.216 30.26 304.269 28.8701 305.308 27.6177C306.377 26.3653 307.431 25.1587 308.47 23.9979C312.532 19.4464 314.93 16.5903 315.663 15.4295C315.816 15.1851 316.045 14.7117 316.351 14.0091C313.571 14.6506 310.776 14.6048 307.966 13.8716C306.896 13.5967 306.163 12.9094 305.766 11.8097C305.339 10.6184 305.644 9.50345 306.683 8.46486C308.179 6.84588 310.394 5.63928 313.326 4.84507C316.076 4.11194 318.825 3.83702 321.574 4.0203C322.063 4.17304 322.445 4.32577 322.72 4.4785C322.995 4.60069 323.3 4.86034 323.636 5.25745L323.682 6.12803C323.835 6.18912 324.079 6.25022 324.415 6.31131C324.782 6.3724 325.056 6.44877 325.24 6.54041C325.423 6.60151 325.622 6.70842 325.835 6.86115C326.049 7.01389 326.248 7.22772 326.431 7.50264C326.798 8.11357 326.966 9.13689 326.935 10.5726C326.935 11.9777 326.599 13.5203 325.927 15.2004C325.286 16.8499 324.491 18.4689 323.544 20.0574C322.597 21.6458 321.574 23.1579 320.474 24.5936C319.405 25.9987 318.489 27.19 317.725 28.1675C316.962 29.145 316.351 29.9392 315.892 30.5502C315.465 31.1306 315.144 31.6346 314.93 32.0622C314.533 32.8259 314.564 33.4216 315.022 33.8492L320.016 34.3532ZM320.566 34.4449H320.154H320.566Z" fill="#EC359C"/>
  <path d="M350.237 9.06052C351.275 9.61036 351.932 10.4199 352.207 11.489C351.596 14.9102 351.046 18.3162 350.558 21.7069C350.069 25.067 349.595 27.8926 349.137 30.1836C348.679 32.4441 348.358 34.1394 348.175 35.2696C348.022 36.3999 347.839 37.5301 347.625 38.6603L347.35 39.6226C347.289 39.9586 347.228 40.264 347.167 40.539C347.106 40.8444 347.045 41.1652 346.984 41.5012C346.128 42.4787 344.967 42.9674 343.501 42.9674C341.943 42.9674 340.706 42.5703 339.79 41.7761C339.24 41.3485 339.148 40.4473 339.515 39.0727C339.668 38.5229 339.759 37.8203 339.79 36.965C339.851 36.0791 339.912 35.346 339.973 34.7656V34.674C339.057 35.01 338.232 35.4529 337.499 36.0028C336.766 36.5221 336.307 36.8581 336.124 37.0108C335.941 37.133 335.697 37.2399 335.391 37.3316C335.086 37.3926 334.811 37.4385 334.566 37.469C333.986 37.4996 333.589 37.5912 333.375 37.7439C331.603 40.9208 330.015 42.6925 328.61 43.0591C327.724 43.334 326.838 43.3951 325.952 43.2424C325.066 43.1202 324.364 42.6009 323.844 41.6845C322.867 40.7681 323.111 38.2632 324.577 34.17C325.372 32.0011 326.502 29.4047 327.968 26.3805C329.465 23.3259 330.901 20.6683 332.275 18.4078C335.238 13.5509 338.492 9.45763 342.035 6.12803C342.615 5.88366 343.242 5.60874 343.914 5.30327C344.586 4.96725 345.242 4.78397 345.884 4.75343C346.556 4.72288 347.243 4.79925 347.946 4.98253C348.648 5.16581 349.244 5.44073 349.733 5.80729C350.863 6.6626 351.031 7.74701 350.237 9.06052ZM340.431 21.1112C339.79 22.944 339.148 24.6394 338.507 26.1973C337.865 27.7246 337.315 29.0687 336.857 30.2294L340.477 30.092C340.721 28.137 340.996 26.1973 341.302 24.2728C341.607 22.3484 341.897 20.4239 342.172 18.4995L340.431 21.1112ZM339.194 30.2753C339.622 30.2753 340.049 30.2447 340.477 30.1836V30.1378C340.08 30.1683 339.713 30.1989 339.377 30.2294C339.041 30.26 338.98 30.2753 339.194 30.2753Z" fill="#EC359C"/>
  <path d="M358.368 42.7842C356.81 42.8452 355.374 42.6467 354.061 42.1885C352.778 41.7608 351.724 41.1652 350.899 40.4015C350.105 39.6378 349.601 38.752 349.387 37.7439C349.173 36.7053 349.356 35.6515 349.937 34.5823C350.731 33.2994 352.319 32.9175 354.702 33.4368C356.504 33.8034 357.741 34.002 358.414 34.0325C359.116 34.063 359.712 33.9714 360.2 33.7576C362.43 33.0245 363.683 32.2302 363.958 31.3749C364.141 30.7335 363.744 29.9851 362.766 29.1297C362.369 28.7632 361.926 28.3966 361.438 28.0301C360.949 27.6635 360.537 27.2969 360.2 26.9304C358.673 25.8001 357.467 24.5019 356.581 23.0357C355.725 21.5389 355.374 19.9199 355.527 18.1787C355.68 16.4376 355.97 15.0019 356.397 13.8716C356.825 12.7109 357.36 11.6875 358.001 10.8017C359.131 9.2438 360.598 7.97611 362.4 6.99861C364.477 5.92948 366.142 5.24218 367.394 4.93671C369.869 4.38687 372.373 4.34105 374.909 4.79925C375.764 4.95198 376.497 5.24217 377.108 5.66983C377.719 6.09748 378.33 6.54041 378.941 6.99861C380.01 8.06775 380.27 9.15216 379.72 10.2518C379.506 10.7406 379.17 11.1377 378.712 11.4432C378.254 11.7486 377.765 11.9166 377.246 11.9472C377.307 12.772 377.154 13.3829 376.787 13.78C376.085 14.4826 374.863 14.9408 373.122 15.1546C370.617 14.9713 368.922 15.1088 368.036 15.567C366.997 16.1168 366.615 17.3081 366.89 19.141C366.951 19.5381 367.196 19.9504 367.623 20.3781C368.082 20.8058 368.601 21.264 369.181 21.7527C369.792 22.2414 370.418 22.7913 371.06 23.4022C371.732 24.0132 372.312 24.7157 372.801 25.51C374.512 28.3203 374.374 31.604 372.389 35.3613C370.922 38.1716 368.418 40.2793 364.874 41.6845C363.041 42.4176 360.873 42.7842 358.368 42.7842Z" fill="#EC359C"/>
  <path d="M144.753 3.03379C142.641 3.71394 141.183 4.91314 140.377 6.63139C139.572 8.33175 139.169 10.2827 139.169 12.4842V18.0417C139.169 19.8315 138.802 21.4603 138.068 22.928C137.334 24.3777 136.18 25.5322 134.605 26.3913C133.048 27.2505 130.998 27.68 128.457 27.68V24.4314C130.479 24.4314 131.929 23.8587 132.806 22.7132C133.701 21.5498 134.148 19.9926 134.148 18.0417V12.4842C134.148 10.6049 134.435 8.85081 135.008 7.22204C135.598 5.57538 136.583 4.13455 137.961 2.89956C139.357 1.64666 141.272 0.680143 143.706 0L144.753 3.03379ZM143.706 52.729C141.272 52.0309 139.357 51.0644 137.961 49.8294C136.583 48.5944 135.598 47.1536 135.008 45.5069C134.435 43.8782 134.148 42.1241 134.148 40.2448V34.6873C134.148 32.7542 133.701 31.206 132.806 30.0426C131.929 28.8792 130.479 28.2975 128.457 28.2975V25.0489C130.998 25.0489 133.048 25.4785 134.605 26.3376C136.18 27.1968 137.334 28.3512 138.068 29.801C138.802 31.2508 139.169 32.8795 139.169 34.6873V40.2448C139.169 42.4463 139.572 44.3972 140.377 46.0976C141.183 47.7979 142.641 48.9882 144.753 49.6683L143.706 52.729Z" fill="white"/>
  <path d="M204.384 0C206.836 0.680143 208.751 1.64666 210.129 2.89956C211.525 4.13455 212.51 5.57538 213.083 7.22204C213.655 8.85081 213.942 10.6049 213.942 12.4842V18.0417C213.942 19.9926 214.389 21.5498 215.284 22.7132C216.179 23.8587 217.629 24.4314 219.634 24.4314V27.4384C217.11 27.4384 215.06 27.0357 213.485 26.2302C211.91 25.4069 210.756 24.2883 210.022 22.8743C209.288 21.4424 208.921 19.8315 208.921 18.0417V12.4842C208.921 10.2827 208.519 8.33175 207.713 6.63139C206.926 4.91314 205.467 3.71394 203.337 3.03379L204.384 0ZM203.337 49.6683C205.467 48.9882 206.926 47.7979 207.713 46.0976C208.519 44.3972 208.921 42.4463 208.921 40.2448V34.6873C208.921 32.8795 209.288 31.2776 210.022 29.8815C210.756 28.4676 211.91 27.3578 213.485 26.5524C215.06 25.7291 217.11 25.3174 219.634 25.3174V28.2975C217.629 28.2975 216.179 28.8792 215.284 30.0426C214.389 31.206 213.942 32.7542 213.942 34.6873V40.2448C213.942 42.1241 213.655 43.8782 213.083 45.5069C212.51 47.1536 211.525 48.5944 210.129 49.8294C208.751 51.0644 206.836 52.0309 204.384 52.729L203.337 49.6683Z" fill="white"/>
  <path d="M166.699 3.93816C164.778 3.80334 163.169 5.1178 162.697 6.86198L161.703 10.6031C161.745 10.6031 161.796 10.6031 161.838 10.6031C176.723 10.6031 188.796 22.6776 188.796 37.5663C188.796 37.6084 188.796 37.659 188.796 37.7011L192.536 36.7068C194.288 36.2434 195.594 34.6256 195.459 32.7045C194.398 17.3018 182.098 4.99984 166.699 3.93816ZM186.083 38.4257C186.091 38.1393 186.1 37.8528 186.1 37.5663C186.1 24.1605 175.241 13.2994 161.838 13.2994C161.551 13.2994 161.265 13.3079 160.978 13.3163L152.445 45.3098C152.318 45.7732 152.453 46.2703 152.79 46.6074C153.127 46.9444 153.624 47.0792 154.087 46.9529L186.083 38.4257ZM167.229 26.781C165.738 26.781 164.533 25.5761 164.533 24.0847C164.533 22.5933 165.738 21.3884 167.229 21.3884C168.72 21.3884 169.925 22.5933 169.925 24.0847C169.925 25.5761 168.72 26.781 167.229 26.781ZM178.012 32.1737C178.012 33.6651 176.808 34.87 175.317 34.87C173.826 34.87 172.621 33.6651 172.621 32.1737C172.621 30.6823 173.826 29.4773 175.317 29.4773C176.808 29.4773 178.012 30.6823 178.012 32.1737ZM165.881 36.2181C165.881 37.7095 164.677 38.9145 163.186 38.9145C161.694 38.9145 160.49 37.7095 160.49 36.2181C160.49 34.7267 161.694 33.5218 163.186 33.5218C164.677 33.5218 165.881 34.7267 165.881 36.2181Z" fill="white"/>
</svg>
